# xmcd
# Track frame offsets:
# 150
# 14525
# 25750
# 38512
# 48812
# 61062
# 74050
# 85650
# 97200
# 107637
# 118162
# 130375
# 142237
# 150725
# 163375
#
# Disc length: 2295 seconds
# Revision: 0
# Processed by: cddbd v1.5.1PL2 Copyright (c) Steve Scherf et al.
# Submitted via: VisiTrax 2.10.0.248 - For more info visit www.synapsa.com
#
DISCID=d308f50f
DTITLE=Reg Lindsay - The Best Of Reg Lindsay
DYEAR=1970
DGENRE=country
TTITLE0=Country Hall Of fame
TTITLE1=It Keeps Right On Hurtin'
TTITLE2=Jungles Of Vietnam
TTITLE3=Wagtail Hop
TTITLE4=They Goota Quit Kickin' My Dog Around
TTITLE5=Play Me A song I Can Cry To
TTITLE6=City Lights
TTITLE7=Tale Of The Breathalyser
TTITLE8=Truck Drivin' Man
TTITLE9=Four Walls
TTITLE10=Keeper Of The Key
TTITLE11=When It Comes To Going
TTITLE12=I've Got Five Dollars And It's Saturday Night
TTITLE13=Bowen River Rodeo
TTITLE14=My Gal Country Style
EXTD=
EXTT0=
EXTT1=
EXTT2=
EXTT3=
EXTT4=
EXTT5=
EXTT6=
EXTT7=
EXTT8=
EXTT9=
EXTT10=
EXTT11=
EXTT12=
EXTT13=
EXTT14=
PLAYORDER=
